<svg xmlns="http://www.w3.org/2000/svg" viewBox="0 0 64 64" role="img" aria-label="Blackjack">
  <defs>
    <linearGradient id="felt" x1="0" y1="0" x2="1" y2="1">
      <stop offset="0" stop-color="#17825d"/>
      <stop offset="1" stop-color="#07513c"/>
    </linearGradient>
  </defs>
  <rect x="3" y="3" width="58" height="58" rx="14" fill="url(#felt)" stroke="#d7b764" stroke-width="3"/>
  <g transform="rotate(-8 25 32)">
    <rect x="12" y="13" width="25" height="36" rx="3" fill="#fffaf0" stroke="#18222a" stroke-width="2"/>
    <text x="17" y="27" fill="#b3272d" font-family="Georgia,serif" font-size="12" font-weight="700">A</text>
    <path d="M25 31c-5-6-11 2 0 10 11-8 5-16 0-10z" fill="#b3272d"/>
  </g>
  <g transform="rotate(9 40 34)">
    <rect x="28" y="16" width="25" height="36" rx="3" fill="#fffaf0" stroke="#18222a" stroke-width="2"/>
    <text x="33" y="30" fill="#111820" font-family="Georgia,serif" font-size="12" font-weight="700">K</text>
    <path d="M41 34c-6 5-8 9-2 11-1-3 1-4 2-5 1 1 3 2 2 5 6-2 4-6-2-11z" fill="#111820"/>
  </g>
</svg>
