<svg xmlns="http://www.w3.org/2000/svg" viewBox="0 0 250 250" aria-hidden="true">
  <defs><linearGradient id="w" x1="0" y1="0" x2="1" y2="1"><stop stop-color="#f0c879"/><stop offset=".45" stop-color="#a3662e"/><stop offset="1" stop-color="#4c2914"/></linearGradient><linearGradient id="c" x1="0" y1="0" x2="0" y2="1"><stop stop-color="#23535a"/><stop offset="1" stop-color="#081d23"/></linearGradient><filter id="s"><feDropShadow dy="7" stdDeviation="7" flood-opacity=".72"/></filter></defs>
  <g filter="url(#s)"><ellipse cx="125" cy="226" rx="103" ry="16" fill="#06151a" opacity=".75"/><path d="M32 90q93-35 186 0l-18 126q-75 31-150 0Z" fill="url(#w)" stroke="#e2b660" stroke-width="5"/><path d="M42 90q83-26 166 0l-6 31q-77-25-154 0Z" fill="url(#c)" stroke="#d8a653" stroke-width="4"/><g fill="none" stroke="#f0ca7b" stroke-width="3" opacity=".55"><path d="M45 139q80-28 160 0M42 164q83-27 166 0M39 190q86-25 172 0"/><path d="m63 105 6 108m31-115 3 122m33-125v127m34-119-5 114m32-104-10 96"/></g>
  <circle cx="92" cy="72" r="32" fill="#277b91" stroke="#0c313a" stroke-width="5"/><g fill="#081d23"><circle cx="80" cy="62" r="5"/><circle cx="105" cy="68" r="6"/><circle cx="91" cy="84" r="5"/></g><path d="M122 91q20-59 49-34 25 23-5 53" fill="#d06b45" stroke="#71351f" stroke-width="5"/><path d="M135 74q18-18 35-2" fill="none" stroke="#ffe0a0" stroke-width="6"/><circle cx="163" cy="82" r="7" fill="#ffe0a0"/></g>
</svg>
