<svg xmlns="http://www.w3.org/2000/svg" viewBox="0 0 160 230" role="img" aria-labelledby="title desc">
  <title id="title">Big Joker</title>
  <desc id="desc">An ornate gold crowned spade with heraldic flourishes on a midnight playing card.</desc>
  <defs>
    <linearGradient id="paper" x1="0" y1="0" x2="1" y2="1">
      <stop stop-color="#fffaf0"/>
      <stop offset=".58" stop-color="#ead9a3"/>
      <stop offset="1" stop-color="#b8872d"/>
    </linearGradient>
    <radialGradient id="field" cx="50%" cy="42%" r="72%">
      <stop stop-color="#17335d"/>
      <stop offset=".58" stop-color="#08162e"/>
      <stop offset="1" stop-color="#020711"/>
    </radialGradient>
    <linearGradient id="gold" x1="0" y1="0" x2="1" y2="1">
      <stop stop-color="#fff0a0"/>
      <stop offset=".28" stop-color="#dcae43"/>
      <stop offset=".7" stop-color="#9c6820"/>
      <stop offset="1" stop-color="#f4d477"/>
    </linearGradient>
    <filter id="glow" x="-30%" y="-30%" width="160%" height="160%">
      <feGaussianBlur stdDeviation="2.2" result="blur"/>
      <feMerge><feMergeNode in="blur"/><feMergeNode in="SourceGraphic"/></feMerge>
    </filter>
  </defs>
  <rect x="2" y="2" width="156" height="226" rx="13" fill="url(#paper)" stroke="#17100a" stroke-width="4"/>
  <rect x="9" y="9" width="142" height="212" rx="9" fill="url(#field)" stroke="#d6ac48" stroke-width="3"/>
  <rect x="14" y="14" width="132" height="202" rx="6" fill="none" stroke="#8b6725"/>

  <g fill="#f6da7c" font-family="Georgia,serif" font-weight="700">
    <text x="19" y="35" font-size="23">J</text>
    <text x="141" y="195" font-size="23" text-anchor="end" transform="rotate(180 131 187)">J</text>
  </g>
  <path d="M18 41h25M117 41h25" stroke="#b58a35" stroke-width="1.5"/>

  <g fill="none" stroke="#9d762c" stroke-width="1.4" opacity=".9">
    <path d="M20 64c14-14 25-15 36-5M140 64c-14-14-25-15-36-5"/>
    <path d="M20 151c13 14 25 16 37 8M140 151c-13 14-25 16-37 8"/>
    <path d="M25 70c8 0 13 5 13 13s-5 13-13 13M135 70c-8 0-13 5-13 13s5 13 13 13"/>
    <path d="M25 145c8 0 13-5 13-13s-5-13-13-13M135 145c-8 0-13-5-13-13s5-13 13-13"/>
  </g>

  <g filter="url(#glow)">
    <path d="M45 143L112 62M48 60l65 84" stroke="#c99b3d" stroke-width="3"/>
    <path d="M43 55l7-7 7 7-7 7zM103 145l7-7 7 7-7 7zM103 55l7-7 7 7-7 7zM43 145l7-7 7 7-7 7z" fill="#e7c263" stroke="#fff0a3"/>

    <path d="M58 58V43l12 9 10-17 10 17 12-9v15z" fill="url(#gold)" stroke="#fff0a3" stroke-width="2"/>
    <circle cx="58" cy="42" r="3.5" fill="#d0344f" stroke="#ffe799"/>
    <circle cx="80" cy="34" r="3.5" fill="#49d6e9" stroke="#ffe799"/>
    <circle cx="102" cy="42" r="3.5" fill="#d0344f" stroke="#ffe799"/>

    <path d="M80 51c-10 16-37 28-37 51 0 18 17 29 31 18-1 14-7 27-17 39h46c-10-12-16-25-17-39 14 11 31 0 31-18 0-23-27-35-37-51z" fill="url(#gold)" stroke="#fff0a3" stroke-width="2.7"/>
    <path d="M80 63v80M58 88l44 27M102 88l-44 27" stroke="#20345a" stroke-width="2" opacity=".8"/>
    <path d="M80 70l8 12-8 12-8-12zM80 103l8 12-8 12-8-12z" fill="#971d37" stroke="#ffe495" stroke-width="1.4"/>
    <path d="M72 145h16l8 14H64z" fill="#d9aa42" stroke="#fff0a3" stroke-width="2"/>
  </g>

  <g fill="#e7c15c">
    <path d="M24 108l4-7 4 7-4 7zM128 108l4-7 4 7-4 7z"/>
    <circle cx="28" cy="126" r="2"/><circle cx="132" cy="126" r="2"/>
  </g>

  <rect x="23" y="177" width="114" height="34" rx="4" fill="#030a17" stroke="#b98c32" stroke-width="1.5"/>
  <text x="80" y="190" fill="#d9ad48" font-family="Georgia,serif" font-size="7.5" font-weight="700" letter-spacing="2.2" text-anchor="middle">THE</text>
  <text x="80" y="205" fill="#fff0a5" font-family="Georgia,serif" font-size="14" font-weight="700" letter-spacing="1.4" text-anchor="middle">BIG JOKER</text>
</svg>